PathFileType	4	(X/Y/Z)	c:/Users/goper/Files/vsCode/490R/osim_files/A06/A06_Slow_03.trc
DataRate	CameraRate	NumFrames	NumMarkers	Units                	OrigDataRate	OrigDataStartFrame	OrigNumFrames
120.00	120.00	9	36	mm	120.0	609	1216
                Frame#	Time	LPSIS			LASIS			LTH1			LTH2			LTH3			LTH4			LLFE			LMFE			LSH1			LSH2			LSH3			LSH4			LLMAL			LMMAL			LCAL			LMTP5			LTOE			LMTP1			RPSIS			RASIS			RTH1			RTH2			RTH3			RTH4			RLFE			RMFE			RSH1			RSH2			RSH3			RSH4			RLMAL			RMMAL			RCAL			RMTP1			RTOE			RMTP5		
		X1	Y1	Z1	X2	Y2	Z2	X3	Y3	Z3	X4	Y4	Z4	X5	Y5	Z5	X6	Y6	Z6	X7	Y7	Z7	X8	Y8	Z8	X9	Y9	Z9	X10	Y10	Z10	X11	Y11	Z11	X12	Y12	Z12	X13	Y13	Z13	X14	Y14	Z14	X15	Y15	Z15	X16	Y16	Z16	X17	Y17	Z17	X18	Y18	Z18	X19	Y19	Z19	X20	Y20	Z20	X21	Y21	Z21	X22	Y22	Z22	X23	Y23	Z23	X24	Y24	Z24	X25	Y25	Z25	X26	Y26	Z26	X27	Y27	Z27	X28	Y28	Z28	X29	Y29	Z29	X30	Y30	Z30	X31	Y31	Z31	X32	Y32	Z32	X33	Y33	Z33	X34	Y34	Z34	X35	Y35	Z35	X36	Y36	Z36

609	5.06667	-4.69736	1012.64404	372.61600	-194.65965	942.31903	423.21786	-119.54488	588.47986	458.81989	-133.67976	545.99542	452.80878	-184.21365	596.20557	451.75244	-184.57739	553.99072	447.96777	-164.12924	477.90430	439.43250	-176.13518	473.77008	332.46899	-104.18650	385.65356	450.52689	-109.74059	339.72360	456.16132	-166.51520	386.00800	447.09222	-164.25871	343.41382	450.79214	-112.03927	85.10346	408.69318	-132.97638	105.93549	326.44305	-48.57745	80.34068	355.09683	-228.44136	39.58394	422.39371	-268.92767	62.34311	368.36966	-244.48076	56.59527	329.34509	5.56361	1035.37939	243.48111	-163.71642	1002.97382	175.30244	-161.80186	618.94257	136.87527	-164.83160	574.93005	133.01483	-99.79720	608.41199	127.10537	-112.26699	567.10992	127.52544	-152.14236	459.10077	154.22881	-151.41446	458.68713	243.31804	-33.41230	355.48975	163.83459	-3.09296	318.84039	164.94014	-76.67913	313.96387	175.94057	-40.24379	282.12708	171.00270	89.49181	215.57518	151.96777	78.87835	208.91208	237.11743	146.79933	234.63013	199.99422	5.95760	90.06859	231.65947	-14.28083	89.72244	191.27806	15.01459	94.90462	142.77158
610	5.07500	-12.07613	1013.19141	373.20010	-202.25903	942.93365	423.67188	-123.27608	588.96271	458.77216	-136.84927	546.22821	452.75262	-187.82524	595.76996	451.54257	-187.69171	553.62531	447.79880	-166.32944	477.84756	439.22861	-178.45729	473.14447	332.17154	-105.91549	385.97238	450.37183	-111.27470	339.96307	456.02451	-168.25562	385.97723	446.90436	-165.79648	343.47867	450.73370	-112.15618	85.20116	408.66882	-133.10063	106.02376	326.45926	-48.64931	80.53799	355.11990	-228.46193	39.56917	422.39383	-268.62259	62.13647	368.60568	-244.37616	56.53035	329.21619	-1.36056	1036.14062	244.17740	-170.59573	1003.91266	175.85658	-173.20508	621.05878	137.55652	-177.14407	577.34558	133.66577	-111.58376	609.66742	127.64281	-124.73741	568.58099	128.10490	-166.58777	461.33099	154.82455	-165.67644	460.89719	243.91734	-51.39810	353.80923	164.21143	-22.34063	316.13141	165.29082	-96.41104	313.59067	176.42572	-60.76216	280.64798	171.49078	66.26167	209.51611	152.46237	56.28514	203.61578	237.18333	124.80489	226.86624	199.99406	-20.70637	87.07867	232.00417	-41.22130	87.29266	191.48288	-11.91692	91.80688	143.06598
611	5.08333	-19.46923	1013.64410	373.83063	-209.83769	943.51324	424.00888	-126.98468	589.43530	458.73804	-138.75916	548.03009	453.80841	-191.72226	595.47931	451.27731	-190.92331	553.31445	447.56696	-168.48598	477.84436	438.99652	-180.71950	472.46310	331.89417	-107.32784	386.62683	450.13788	-112.73404	340.25204	455.90533	-170.10284	385.95621	446.77310	-167.36192	343.37207	450.48404	-112.37751	85.28946	408.64890	-133.23108	106.09234	326.47632	-48.14589	81.45006	355.76785	-228.21635	39.14080	422.39410	-268.74866	62.06484	368.59360	-243.75851	55.83496	329.27945	-8.41615	1036.69080	244.86426	-177.53844	1004.68445	176.17303	-184.48447	623.33124	138.10779	-189.16101	579.55853	134.35706	-123.00744	610.85284	128.16612	-136.86110	570.04797	128.57942	-180.49399	463.44052	155.33278	-179.53143	462.94235	244.44278	-69.28809	351.75912	164.59554	-41.50887	313.14804	165.55455	-115.25171	313.31256	176.81427	-80.99271	279.11502	171.76349	43.07619	203.42545	152.59850	32.38409	197.59029	237.03252	102.19724	218.90504	200.01587	-48.51153	84.51258	231.88182	-68.65628	85.17210	191.78021	-38.95640	88.36015	143.11868
612	5.09167	-26.85626	1013.96393	374.45395	-217.39238	943.88837	424.13782	-130.43596	589.95538	458.62030	-141.75569	548.37305	453.81470	-195.17830	595.14191	451.23972	-193.88275	553.01111	447.60254	-170.56734	477.78760	438.83853	-183.12074	471.88733	331.69601	-109.35489	386.55981	450.04221	-114.21535	340.47696	455.79520	-171.73517	385.83841	446.59482	-168.89911	343.43100	450.45050	-112.47811	85.37411	408.64227	-133.38274	106.17537	326.49756	-47.94147	81.81319	355.66629	-228.57260	39.49067	422.46628	-268.78897	61.92550	368.56540	-243.83833	55.77098	329.33652	-15.40190	1036.99377	245.49689	-184.38876	1005.26343	176.43996	-195.37039	625.47278	138.72252	-200.75734	581.50537	134.87051	-134.13235	611.83392	128.59416	-148.61476	571.29602	128.95818	-193.93027	465.28027	155.76183	-192.80365	464.72058	244.83949	-86.97494	349.54486	164.88089	-60.68303	309.83963	165.81758	-134.63031	312.66162	177.15503	-101.53707	277.24683	172.06151	19.73863	196.99107	152.78125	8.93288	191.59335	237.16862	79.60551	210.30637	200.06801	-76.39244	81.49991	232.08986	-96.29187	83.05481	192.06302	-67.11784	85.35249	143.25589
613	5.10000	-34.15858	1014.11230	375.13095	-224.91176	944.24451	424.19675	-134.02444	590.44000	458.52634	-144.82384	548.69141	453.82343	-198.66797	594.84973	451.22281	-196.92221	552.63940	447.61874	-172.66980	477.73773	438.70737	-185.50737	471.32309	331.50912	-111.14680	386.81607	449.94119	-115.58159	340.71774	455.65857	-173.41016	385.70694	446.53424	-170.12080	343.25824	450.33649	-112.60690	85.38943	408.64969	-134.13205	106.89675	326.80612	-48.22421	81.72006	355.81818	-228.60907	39.39315	422.52185	-268.79877	61.73740	368.55649	-243.83096	55.65173	329.35394	-22.45788	1037.10620	246.20772	-191.25488	1005.59723	176.46890	-205.91252	627.09772	139.18439	-212.02034	583.14575	135.37706	-144.90262	612.62909	128.95639	-160.03339	572.24152	129.33942	-206.82524	466.87579	156.03604	-205.65910	466.25851	245.13557	-104.45609	346.96661	165.10257	-79.84449	306.24622	166.05942	-153.32527	312.02478	177.40814	-121.79627	275.34271	172.26363	-4.06141	190.04988	152.93987	-14.91784	185.31172	237.37881	56.31543	201.08165	200.05562	-104.50420	78.60743	232.30905	-124.32848	80.99673	192.29083	-95.13553	82.21083	143.46710
614	5.10833	-41.53981	1014.11578	375.76263	-232.43979	944.48962	424.15698	-137.60072	590.92230	458.44244	-147.83229	548.98553	453.88052	-202.35239	594.56274	451.20972	-200.05518	552.36725	447.74844	-174.88084	477.64270	438.59354	-188.10736	470.89420	331.42618	-112.78920	387.03641	449.74805	-117.16206	340.93167	455.54099	-175.11227	385.63858	446.40567	-171.90062	343.24988	450.27353	-112.80916	85.38902	408.64081	-133.78285	106.26917	326.63895	-48.38326	81.74212	355.83850	-228.70110	39.30404	422.57782	-268.87729	61.55099	368.58496	-243.99213	55.53770	329.35992	-29.59336	1037.06934	246.78288	-198.18019	1005.82465	176.51981	-216.10341	628.47192	139.33202	-222.69191	584.49390	135.74098	-155.32133	613.25330	129.22887	-170.97849	573.09680	129.61613	-219.11649	468.20084	156.21001	-217.93599	467.52271	245.26831	-121.88226	344.08746	165.25679	-98.81873	302.40948	166.18915	-172.35170	311.11664	177.58276	-142.04190	273.23718	172.63762	-27.87485	182.97516	153.11981	-38.70291	179.05110	237.79666	32.68752	191.63565	200.30214	-132.94942	76.02964	232.35938	-152.63383	79.16457	192.38060	-123.56467	79.16161	143.61143
615	5.11667	-48.74756	1014.08453	376.36539	-239.31752	944.50958	423.95447	-141.19966	591.37115	458.31311	-150.95325	549.31561	453.85086	-205.91772	594.19391	451.24567	-203.19733	552.04883	447.76599	-176.99500	477.60034	438.55206	-190.55928	470.44366	331.34528	-114.59198	387.30081	449.60626	-118.52052	341.14410	455.34827	-176.91321	385.60693	446.39447	-173.14055	343.01831	450.16199	-112.89626	85.42909	408.60385	-133.91866	106.33307	326.59219	-48.38647	81.86617	355.83929	-228.68600	39.22397	422.63205	-269.22327	61.58029	368.44583	-244.04688	55.42373	329.36966	-36.64424	1036.90515	247.34032	-205.07021	1005.92169	176.46980	-226.02327	629.52893	139.58716	-233.26532	585.52905	136.06609	-165.46194	613.58118	129.54077	-181.52602	573.61401	129.81195	-230.84808	469.22385	156.29688	-229.78111	468.44321	245.40105	-139.49722	340.58096	165.66876	-118.01853	298.33951	166.31018	-190.85143	310.15616	177.91319	-161.84581	270.65027	172.74652	-52.19539	175.90877	153.27335	-63.12145	172.48853	237.98642	8.43108	181.80394	200.23318	-161.84917	73.64682	232.51344	-181.35170	77.64744	192.51582	-152.21054	76.35093	143.67462
616	5.12500	-55.92079	1013.96106	376.84006	-247.22278	944.86389	423.87436	-144.91498	591.79315	458.14209	-154.11580	549.61530	453.83313	-209.63448	593.87030	451.23209	-206.34280	551.70099	447.92285	-179.33801	477.54120	438.46402	-193.31409	470.17203	331.25470	-116.34863	387.52390	449.39551	-120.11169	341.36810	455.25070	-178.65334	385.23175	446.18478	-174.72350	342.92761	450.09671	-113.02276	85.45058	408.54376	-134.09303	106.37372	326.54822	-48.42529	81.98265	355.84009	-228.71129	39.14944	422.65933	-269.31110	60.86315	367.86459	-244.11880	55.30187	329.40909	-43.71813	1036.63684	247.79132	-212.07840	1005.89856	176.42690	-235.44264	630.23004	139.82454	-243.29417	586.27124	136.29224	-175.15178	613.79028	129.77432	-191.62065	573.98248	129.97223	-241.95045	469.93106	156.25761	-241.05379	469.14185	245.35030	-156.38322	337.42538	165.63263	-136.80894	294.17889	166.52345	-208.57413	308.72217	178.09607	-181.94926	268.43033	172.81247	-76.65144	168.96474	153.44458	-89.11160	166.59258	238.71935	-15.89142	172.08363	200.58195	-191.03589	71.61995	232.53981	-210.17609	76.50397	192.51787	-181.19859	73.85884	143.72345
617	5.13333	-63.11506	1013.66577	377.24490	-254.80095	945.04694	423.74146	-148.82321	592.15717	457.99780	-157.55722	549.87262	453.77087	-213.62405	593.43591	451.19257	-209.79091	551.39429	447.88776	-181.77113	477.39975	438.38031	-196.20303	469.79648	331.21698	-118.35212	387.76630	449.21082	-121.64635	341.56729	455.05954	-180.61592	385.06650	446.07153	-176.42294	342.76141	449.95447	-113.21085	85.50543	408.46277	-133.92174	106.25712	326.42590	-48.25569	82.23698	355.75723	-228.77711	39.10480	422.70303	-269.34283	61.20746	368.35214	-244.28578	55.75148	329.64883	-50.83259	1036.30408	248.15813	-219.09967	1005.67529	176.33150	-244.65242	630.64771	139.99086	-252.91924	586.64203	136.28546	-184.51465	613.76245	129.94409	-201.30656	574.10529	130.05939	-252.50423	470.28812	156.22748	-251.74443	469.43472	245.28355	-173.28505	333.84692	165.85269	-155.33743	289.94092	167.02873	-226.78902	307.69751	178.03857	-201.99637	266.15665	172.87299	-101.55232	161.78320	153.69797	-113.22289	159.33081	238.36368	-40.92727	161.84314	200.84593	-220.53178	69.95103	232.52567	-239.29916	75.83854	192.49501	-210.33984	71.79892	143.69708
